<?xml version="1.0" encoding="UTF-8" standalone="no"?>
<!DOCTYPE svg PUBLIC "-//W3C//DTD SVG 1.1//EN" "http://www.w3.org/Graphics/SVG/1.1/DTD/svg11.dtd">
<svg width="100%" height="100%" viewBox="0 0 800 800" version="1.1" xmlns="http://www.w3.org/2000/svg" xmlns:xlink="http://www.w3.org/1999/xlink" xml:space="preserve" xmlns:serif="http://www.serif.com/" style="fill-rule:evenodd;clip-rule:evenodd;stroke-linejoin:round;stroke-miterlimit:2;">
    <g transform="matrix(1.04022,0,0,1.06098,-18.4987,-18.8542)">
        <path d="M668.985,264.057C668.985,191.909 609.241,133.333 535.652,133.333L268.986,133.333C195.397,133.333 135.652,191.909 135.652,264.057L135.652,525.508C135.652,597.656 195.397,656.232 268.986,656.232L535.652,656.232C609.241,656.232 668.985,597.656 668.985,525.508L668.985,264.057Z" style="fill:rgb(235,235,235);"/>
    </g>
    <path d="M611.25,611.25L522.35,611.25L522.35,472C522.35,438.8 521.75,396.05 476.1,396.05C429.8,396.05 422.7,432.25 422.7,469.55L422.7,611.25L333.8,611.25L333.8,324.9L419.15,324.9L419.15,364.05L420.35,364.05C437.75,334.35 470.15,316.55 504.55,317.8C594.65,317.8 611.3,377.05 611.3,454.2L611.25,611.2L611.25,611.25ZM233.5,285.75C205.263,285.614 182.063,262.436 181.9,234.2C181.9,205.9 205.2,182.6 233.5,182.6C261.8,182.6 285.05,205.9 285.1,234.2C285.1,262.5 261.8,285.8 233.5,285.8L233.5,285.75ZM277.95,611.25L188.95,611.25L188.95,324.9L277.95,324.9L277.95,611.25ZM655.5,100L144.25,100C120.28,99.861 100.381,119.333 100,143.3L100,656.7C100.381,680.667 120.28,700.139 144.25,700L655.55,700C679.575,700.195 699.565,680.722 700,656.7L700,143.25C699.565,119.245 679.558,99.801 655.55,100.05L655.5,100Z" style="fill:rgb(10,102,194);fill-rule:nonzero;"/>
</svg>
